<!DOCTYPE svg PUBLIC "-//W3C//DTD SVG 20010904//EN" "http://www.w3.org/TR/2001/REC-SVG-20010904/DTD/svg10.dtd">
<svg version="1.0" xmlns="http://www.w3.org/2000/svg" width="84px" height="84px" viewBox="0 0 840 840" preserveAspectRatio="xMidYMid meet">
<g id="layer1" fill="#ffffff" stroke="none">
 <path d="M80 425 l0 -285 300 0 300 0 0 285 0 285 -300 0 -300 0 0 -285z m530 210 c0 -13 -32 -15 -230 -15 -198 0 -230 2 -230 15 0 13 32 15 230 15 198 0 230 -2 230 -15z m0 -60 c0 -13 -32 -15 -230 -15 -198 0 -230 2 -230 15 0 13 32 15 230 15 198 0 230 -2 230 -15z m0 -60 c0 -13 -32 -15 -230 -15 -198 0 -230 2 -230 15 0 13 32 15 230 15 198 0 230 -2 230 -15z m0 -80 c0 -12 -14 -15 -65 -15 -51 0 -65 3 -65 15 0 12 14 15 65 15 51 0 65 -3 65 -15z m-180 -120 l0 -125 -140 0 -140 0 0 125 0 125 140 0 140 0 0 -125z m100 50 c0 -31 -3 -35 -25 -35 -22 0 -25 4 -25 35 0 31 3 35 25 35 22 0 25 -4 25 -35z m80 0 c0 -31 -3 -35 -25 -35 -22 0 -25 4 -25 35 0 31 3 35 25 35 22 0 25 -4 25 -35z m0 -120 l0 -55 -65 0 -65 0 0 55 0 55 65 0 65 0 0 -55z"/>
 <path d="M690 445 l0 -265 50 0 c60 0 58 -24 25 250 -14 113 -25 222 -25 243 0 33 -3 37 -25 37 l-25 0 0 -265z"/>
 </g>

</svg>