<!DOCTYPE svg PUBLIC "-//W3C//DTD SVG 20010904//EN" "http://www.w3.org/TR/2001/REC-SVG-20010904/DTD/svg10.dtd">
<svg version="1.0" xmlns="http://www.w3.org/2000/svg" width="84px" height="84px" viewBox="0 0 840 840" preserveAspectRatio="xMidYMid meet">
<g id="layer1" fill="#ffffff" stroke="none">
 <path d="M495 793 c-73 -38 -105 -94 -105 -183 0 -126 74 -200 200 -200 126 0 200 74 200 200 0 128 -74 200 -202 200 -38 -1 -75 -7 -93 -17z m123 -20 c-16 -2 -40 -2 -55 0 -16 2 -3 4 27 4 30 0 43 -2 28 -4z m-128 -26 c0 -2 -10 -12 -22 -23 l-23 -19 19 23 c18 21 26 27 26 19z m225 -17 c10 -11 16 -20 13 -20 -3 0 -13 9 -23 20 -10 11 -16 20 -13 20 3 0 13 -9 23 -20z m-64 -5 c89 -47 89 -183 0 -230 -61 -31 -136 -11 -171 48 -68 111 55 242 171 182z m-224 -142 c-2 -16 -4 -3 -4 27 0 30 2 43 4 28 2 -16 2 -40 0 -55z m330 0 c-2 -16 -4 -3 -4 27 0 30 2 43 4 28 2 -16 2 -40 0 -55z m-282 -93 c10 -11 16 -20 13 -20 -3 0 -13 9 -23 20 -10 11 -16 20 -13 20 3 0 13 -9 23 -20z m255 17 c0 -2 -10 -12 -22 -23 l-23 -19 19 23 c18 21 26 27 26 19z m-112 -64 c-16 -2 -40 -2 -55 0 -16 2 -3 4 27 4 30 0 43 -2 28 -4z"/>
 <path d="M556 696 c-30 -25 -31 -64 -1 -52 23 8 18 -22 -5 -34 -29 -15 -26 -61 5 -88 31 -27 29 -27 60 0 30 26 32 48 5 48 -11 0 -20 4 -20 10 0 5 9 14 20 20 29 16 27 67 -6 96 -14 13 -26 24 -27 24 -1 -1 -15 -11 -31 -24z"/>
 <path d="M247 715 c-30 -16 -63 -37 -73 -45 -24 -19 -70 -86 -83 -123 -9 -23 -15 -27 -32 -22 -18 6 -20 4 -14 -17 15 -51 17 -60 20 -89 5 -35 23 -62 36 -53 5 3 7 9 4 14 -3 5 6 32 20 59 29 58 31 71 10 71 -19 0 -19 3 4 46 29 54 65 91 113 115 39 20 61 25 121 28 13 1 17 7 15 23 -5 35 -73 32 -141 -7z"/>
 <path d="M779 485 c-1 -6 -1 -13 0 -18 1 -4 -10 -30 -24 -57 -29 -57 -31 -70 -10 -70 19 0 19 -3 -4 -46 -29 -54 -65 -91 -113 -115 -39 -20 -61 -25 -121 -28 -13 -1 -17 -7 -15 -23 3 -20 9 -23 43 -23 40 0 129 38 170 73 26 22 71 89 84 125 9 23 15 27 32 22 18 -6 20 -4 14 17 -15 51 -17 60 -21 90 -3 30 -33 73 -35 53z"/>
 <path d="M195 433 c-73 -38 -105 -94 -105 -183 0 -126 74 -200 200 -200 126 0 200 74 200 200 0 128 -74 200 -202 200 -38 -1 -75 -7 -93 -17z m123 -20 c-16 -2 -40 -2 -55 0 -16 2 -3 4 27 4 30 0 43 -2 28 -4z m-128 -26 c0 -2 -10 -12 -22 -23 l-23 -19 19 23 c18 21 26 27 26 19z m225 -17 c10 -11 16 -20 13 -20 -3 0 -13 9 -23 20 -10 11 -16 20 -13 20 3 0 13 -9 23 -20z m-64 -5 c64 -34 87 -120 49 -182 -50 -83 -170 -83 -220 0 -68 111 55 242 171 182z m-224 -142 c-2 -16 -4 -3 -4 27 0 30 2 43 4 28 2 -16 2 -40 0 -55z m330 0 c-2 -16 -4 -3 -4 27 0 30 2 43 4 28 2 -16 2 -40 0 -55z m-282 -93 c10 -11 16 -20 13 -20 -3 0 -13 9 -23 20 -10 11 -16 20 -13 20 3 0 13 -9 23 -20z m255 17 c0 -2 -10 -12 -22 -23 l-23 -19 19 23 c18 21 26 27 26 19z m-112 -64 c-16 -2 -40 -2 -55 0 -16 2 -3 4 27 4 30 0 43 -2 28 -4z"/>
 <path d="M266 336 c-30 -25 -31 -64 -1 -52 23 8 18 -22 -5 -34 -29 -15 -26 -61 5 -88 31 -27 29 -27 60 0 30 26 32 48 5 48 -11 0 -20 4 -20 10 0 5 9 14 20 20 29 16 27 67 -6 96 -14 13 -26 24 -27 24 -1 -1 -15 -11 -31 -24z"/>
 </g>

</svg>