<!DOCTYPE svg PUBLIC "-//W3C//DTD SVG 20010904//EN" "http://www.w3.org/TR/2001/REC-SVG-20010904/DTD/svg10.dtd">
<svg version="1.0" xmlns="http://www.w3.org/2000/svg" width="84px" height="84px" viewBox="0 0 840 840" preserveAspectRatio="xMidYMid meet">
<g id="layer1" fill="#ffffff" stroke="none">
 <path d="M561 642 l-61 -69 -38 10 c-89 24 -205 -28 -249 -112 -17 -32 -23 -61 -23 -107 0 -75 9 -100 51 -148 48 -55 96 -76 174 -76 98 0 166 42 210 129 25 49 18 165 -13 208 -12 17 -22 35 -22 40 0 5 23 36 50 68 40 48 50 66 48 90 -3 26 -8 30 -34 33 -28 3 -39 -5 -93 -66z m-73 -172 c41 -25 66 -81 58 -129 -8 -53 -62 -102 -119 -108 -137 -16 -201 166 -84 237 41 26 103 25 145 0z"/>
 </g>

</svg>