<!DOCTYPE svg PUBLIC "-//W3C//DTD SVG 20010904//EN" "http://www.w3.org/TR/2001/REC-SVG-20010904/DTD/svg10.dtd">
<svg version="1.0" xmlns="http://www.w3.org/2000/svg" width="84px" height="84px" viewBox="0 0 840 840" preserveAspectRatio="xMidYMid meet">
<g id="layer1" fill="#ffffff" stroke="none">
 <path d="M70 435 l0 -255 375 0 375 0 0 255 0 255 -375 0 -375 0 0 -255z m730 0 l0 -235 -355 0 -355 0 0 235 0 235 355 0 355 0 0 -235z"/>
 <path d="M130 585 l0 -75 30 0 30 0 0 75 0 75 -30 0 -30 0 0 -75z"/>
 <path d="M220 545 l0 -115 30 0 30 0 0 115 0 115 -30 0 -30 0 0 -115z"/>
 <path d="M300 625 c0 -32 2 -35 30 -35 28 0 30 3 30 35 0 32 -2 35 -30 35 -28 0 -30 -3 -30 -35z"/>
 <path d="M380 460 l0 -200 30 0 30 0 0 200 0 200 -30 0 -30 0 0 -200z"/>
 <path d="M460 550 l0 -110 30 0 30 0 0 110 0 110 -30 0 -30 0 0 -110z"/>
 <path d="M550 495 l0 -165 30 0 30 0 0 165 0 165 -30 0 -30 0 0 -165z"/>
 <path d="M630 545 l0 -115 30 0 30 0 0 115 0 115 -30 0 -30 0 0 -115z"/>
 <path d="M710 585 l0 -75 30 0 30 0 0 75 0 75 -30 0 -30 0 0 -75z"/>
 </g>

</svg>