<!DOCTYPE svg PUBLIC "-//W3C//DTD SVG 20010904//EN" "http://www.w3.org/TR/2001/REC-SVG-20010904/DTD/svg10.dtd">
<svg version="1.0" xmlns="http://www.w3.org/2000/svg" width="84px" height="84px" viewBox="0 0 840 840" preserveAspectRatio="xMidYMid meet">
<g id="layer1" fill="#ffffff" stroke="none">
 <path d="M311 677 c14 -10 49 -68 49 -80 0 -2 -19 -9 -42 -16 -125 -37 -198 -108 -198 -193 0 -61 18 -96 72 -142 119 -102 387 -102 506 0 54 46 72 81 72 142 0 38 -6 58 -29 90 -37 49 -134 100 -215 111 -43 6 -65 15 -89 38 -50 47 -79 63 -112 63 -26 -1 -28 -2 -14 -13z"/>
 </g>

</svg>