<!DOCTYPE svg PUBLIC "-//W3C//DTD SVG 20010904//EN" "http://www.w3.org/TR/2001/REC-SVG-20010904/DTD/svg10.dtd">
<svg version="1.0" xmlns="http://www.w3.org/2000/svg" width="84px" height="84px" viewBox="0 0 840 840" preserveAspectRatio="xMidYMid meet">
<g id="layer1" fill="#ffffff" stroke="none">
 <path d="M255 683 c3 -21 10 -67 14 -103 l9 -65 -71 -72 c-44 -45 -68 -76 -62 -82 6 -4 52 -16 102 -26 l93 -17 47 -86 c27 -47 53 -85 58 -85 6 0 31 38 56 84 l47 84 95 20 c53 11 99 23 103 27 3 4 -25 40 -64 80 l-71 73 13 100 c8 55 12 102 10 104 -2 2 -45 -15 -97 -38 l-93 -43 -88 41 c-49 23 -93 41 -98 41 -4 0 -6 -17 -3 -37z"/>
 </g>

</svg>