<!DOCTYPE svg PUBLIC "-//W3C//DTD SVG 20010904//EN" "http://www.w3.org/TR/2001/REC-SVG-20010904/DTD/svg10.dtd">
<svg version="1.0" xmlns="http://www.w3.org/2000/svg" width="84px" height="84px" viewBox="0 0 840 840" preserveAspectRatio="xMidYMid meet">
<g id="layer1" fill="#ffffff" stroke="none">
 <path d="M200 605 l0 -85 35 0 35 0 0 50 0 50 175 0 175 0 0 -50 0 -50 35 0 35 0 0 85 0 85 -245 0 -245 0 0 -85z"/>
 <path d="M367 519 c-87 -116 -88 -119 -43 -119 l36 0 0 -110 0 -110 80 0 80 0 0 110 0 110 40 0 c22 0 40 2 40 5 0 10 -151 205 -158 205 -4 0 -38 -41 -75 -91z"/>
 </g>

</svg>