<!DOCTYPE svg PUBLIC "-//W3C//DTD SVG 20010904//EN" "http://www.w3.org/TR/2001/REC-SVG-20010904/DTD/svg10.dtd">
<svg version="1.0" xmlns="http://www.w3.org/2000/svg" width="84px" height="84px" viewBox="0 0 840 840" preserveAspectRatio="xMidYMid meet">
<g id="layer1" fill="#ffffff" stroke="none">
 <path d="M78 718 c17 -24 46 -69 66 -101 42 -66 82 -94 149 -103 26 -4 47 -8 47 -9 0 -1 -6 -18 -14 -36 -7 -19 -16 -42 -19 -51 -6 -16 -9 -16 -41 -3 -68 29 -154 15 -208 -33 -30 -26 -20 -30 33 -15 67 20 104 11 175 -39 l59 -42 -42 -9 c-87 -17 -113 -121 -44 -174 28 -21 97 -16 127 10 34 29 39 94 9 127 l-19 21 49 -22 c33 -15 71 -23 113 -23 59 -1 66 1 89 28 21 25 24 37 20 74 -3 24 -12 51 -21 60 -15 15 -16 13 -16 -21 0 -42 -28 -77 -61 -77 -26 0 -79 52 -79 78 0 22 61 142 92 182 57 74 141 88 232 41 52 -28 56 -29 56 -10 0 30 -73 96 -122 110 -60 16 -116 6 -240 -40 -166 -63 -207 -56 -314 55 -39 40 -70 64 -84 64 -21 0 -20 -1 8 -42z"/>
 </g>

</svg>