<!DOCTYPE svg PUBLIC "-//W3C//DTD SVG 20010904//EN" "http://www.w3.org/TR/2001/REC-SVG-20010904/DTD/svg10.dtd">
<svg version="1.0" xmlns="http://www.w3.org/2000/svg" width="84px" height="84px" viewBox="0 0 840 840" preserveAspectRatio="xMidYMid meet">
<g id="layer1" fill="#ffffff" stroke="none">
 <path d="M392 765 c-14 -30 -42 -32 -67 -5 -24 26 -33 25 -74 -9 -31 -26 -33 -30 -23 -58 15 -43 -7 -65 -50 -49 -26 10 -31 8 -49 -14 -32 -41 -35 -72 -11 -88 32 -21 28 -51 -8 -64 -30 -10 -31 -12 -28 -62 3 -47 5 -51 27 -48 35 4 44 -18 18 -46 l-22 -23 20 -37 c17 -31 26 -37 53 -38 43 0 55 -14 43 -47 -9 -24 -7 -29 27 -52 44 -30 63 -31 86 -6 23 26 53 16 61 -20 6 -27 10 -29 56 -29 47 0 51 2 60 30 13 35 33 39 51 10 16 -25 31 -25 70 -3 23 15 29 24 27 48 -4 44 8 58 48 53 32 -4 36 -1 54 35 19 35 19 40 5 56 -25 27 -19 51 14 62 27 10 30 15 30 55 0 41 -3 46 -29 55 -39 14 -48 39 -22 61 25 20 26 39 5 80 -13 25 -20 29 -45 26 -36 -6 -50 10 -47 52 3 27 -2 35 -34 53 l-37 22 -24 -23 c-30 -28 -56 -20 -64 19 -5 28 -8 29 -58 29 -46 0 -53 -3 -63 -25z m93 -34 c9 -41 72 -56 105 -26 27 24 51 9 45 -29 -7 -44 24 -80 65 -74 39 6 53 -27 22 -53 -14 -11 -19 -24 -16 -40 3 -18 1 -16 -8 6 -51 121 -145 182 -271 173 -150 -10 -242 -108 -242 -258 0 -111 46 -189 141 -236 55 -27 183 -27 238 0 86 43 135 119 146 226 4 36 8 59 9 52 0 -7 15 -18 31 -23 22 -8 30 -17 30 -35 0 -19 -5 -24 -25 -24 -20 0 -26 -7 -36 -40 -10 -34 -10 -43 5 -59 25 -27 11 -54 -25 -47 -19 3 -36 -1 -54 -16 -22 -17 -26 -27 -22 -54 6 -38 -16 -54 -43 -29 -33 30 -100 9 -100 -31 0 -11 -8 -14 -27 -12 -20 2 -29 10 -33 28 -8 36 -71 51 -100 25 -17 -16 -24 -16 -44 -5 -20 10 -23 18 -19 44 6 40 -24 71 -62 64 -35 -7 -54 25 -31 51 31 34 12 91 -29 91 -20 0 -25 5 -25 24 0 18 7 25 29 29 24 5 29 12 34 44 4 29 0 42 -15 55 -13 12 -17 24 -13 38 6 18 12 21 44 15 31 -5 40 -2 60 19 19 20 22 31 17 60 -9 46 18 65 50 35 27 -25 79 -16 101 17 22 35 60 32 68 -5z m25 -81 c48 -13 99 -52 131 -101 110 -162 -41 -378 -240 -344 -53 9 -117 52 -151 104 -117 173 55 398 260 341z"/>
 <path d="M420 625 c0 -9 -8 -18 -17 -22 -31 -11 -53 -35 -53 -60 0 -28 26 -41 51 -24 17 10 19 8 19 -26 -1 -32 -6 -41 -33 -58 -60 -38 -59 -128 3 -163 16 -9 30 -22 30 -29 0 -14 36 -27 50 -18 5 3 10 12 10 18 1 7 15 21 33 32 22 14 33 30 35 49 3 27 2 28 -32 24 -35 -4 -36 -3 -36 28 0 24 5 34 20 39 32 10 60 54 60 95 0 41 -28 85 -60 95 -11 4 -20 13 -20 21 0 9 -11 14 -30 14 -20 0 -30 -5 -30 -15z m71 -132 c-9 -15 -10 -12 -10 17 0 29 1 32 10 18 7 -12 7 -24 0 -35z m-74 -145 c-3 -8 -6 -5 -6 6 -1 11 2 17 5 13 3 -3 4 -12 1 -19z"/>
 </g>

</svg>