<!DOCTYPE svg PUBLIC "-//W3C//DTD SVG 20010904//EN" "http://www.w3.org/TR/2001/REC-SVG-20010904/DTD/svg10.dtd">
<svg version="1.0" xmlns="http://www.w3.org/2000/svg" width="84px" height="84px" viewBox="0 0 840 840" preserveAspectRatio="xMidYMid meet">
<g id="layer1" fill="#ffffff" stroke="none">
 <path d="M247 663 c-4 -3 -7 -41 -7 -82 l0 -76 93 -93 c51 -50 97 -92 102 -92 6 0 52 42 103 93 l93 93 -3 80 -3 79 -67 3 -67 3 -3 -73 c-3 -68 -5 -74 -30 -86 -22 -10 -32 -10 -50 -1 -34 18 -38 28 -38 97 l0 62 -58 0 c-32 0 -62 -3 -65 -7z"/>
 <path d="M178 489 c-10 -6 -18 -22 -18 -37 0 -22 26 -53 123 -150 144 -144 155 -148 224 -80 31 30 43 37 43 25 0 -11 8 -17 25 -17 23 0 25 4 25 43 0 39 5 48 55 97 56 55 69 92 43 118 -23 23 -44 11 -153 -92 l-109 -104 -112 104 c-62 57 -116 104 -120 104 -5 0 -17 -5 -26 -11z"/>
 </g>

</svg>