<!DOCTYPE svg PUBLIC "-//W3C//DTD SVG 20010904//EN" "http://www.w3.org/TR/2001/REC-SVG-20010904/DTD/svg10.dtd">
<svg version="1.0" xmlns="http://www.w3.org/2000/svg" width="84px" height="84px" viewBox="0 0 840 840" preserveAspectRatio="xMidYMid meet">
<g id="layer1" fill="#ffffff" stroke="none">
 <path d="M340 730 l0 -90 -46 0 c-40 0 -45 -2 -39 -17 13 -35 75 -208 75 -212 0 -2 -18 19 -41 48 -32 40 -47 51 -70 51 -52 0 -39 -42 51 -168 63 -87 88 -113 111 -120 l31 -8 -25 -13 c-51 -27 -60 -114 -14 -146 28 -19 96 -19 124 0 44 31 39 110 -10 144 -19 13 -18 14 10 26 20 8 56 50 107 121 61 87 76 115 74 139 -2 22 -9 31 -25 33 -18 3 -33 -11 -70 -62 -26 -37 -49 -63 -51 -58 -1 4 16 60 37 125 l40 117 -50 0 -49 0 0 90 0 90 -40 0 -39 0 -4 -92 -3 -93 -2 93 -2 92 -40 0 -40 0 0 -90z"/>
 </g>

</svg>