<!DOCTYPE svg PUBLIC "-//W3C//DTD SVG 20010904//EN" "http://www.w3.org/TR/2001/REC-SVG-20010904/DTD/svg10.dtd">
<svg version="1.0" xmlns="http://www.w3.org/2000/svg" width="84px" height="84px" viewBox="0 0 840 840" preserveAspectRatio="xMidYMid meet">
<g id="layer1" fill="#ffffff" stroke="none">
 <path d="M200 615 l0 -85 35 0 35 0 0 50 0 50 175 0 175 0 0 -50 0 -50 35 0 35 0 0 85 0 85 -245 0 -245 0 0 -85z"/>
 <path d="M360 490 l0 -110 -35 0 c-19 0 -35 -4 -35 -8 0 -11 139 -196 150 -200 8 -3 160 190 160 203 0 3 -18 5 -40 5 l-40 0 0 110 0 110 -80 0 -80 0 0 -110z"/>
 </g>
</svg>