<!DOCTYPE svg PUBLIC "-//W3C//DTD SVG 20010904//EN" "http://www.w3.org/TR/2001/REC-SVG-20010904/DTD/svg10.dtd">
<svg version="1.0" xmlns="http://www.w3.org/2000/svg" width="84px" height="84px" viewBox="0 0 840 840" preserveAspectRatio="xMidYMid meet">
<g id="layer1" fill="#ffffff" stroke="none">
 <path d="M157 723 c-4 -3 -7 -48 -7 -99 0 -88 -1 -93 -22 -96 -22 -3 -23 -7 -23 -93 l0 -90 45 -3 c46 -3 46 -3 42 -36 -7 -60 57 -151 113 -162 27 -5 41 -1 68 20 18 14 39 37 47 51 l13 25 17 -28 c24 -39 78 -82 102 -82 24 0 90 65 114 112 9 17 14 45 12 64 -4 33 -4 33 42 36 l45 3 0 95 c0 90 -1 95 -22 98 -21 3 -22 9 -25 95 l-3 92 -276 3 c-151 1 -278 -1 -282 -5z m215 -452 c-24 -33 -48 -38 -73 -15 -35 31 -24 50 34 60 61 10 72 -2 39 -45z m211 37 c22 -11 22 -20 -1 -48 -14 -18 -25 -21 -45 -16 -27 6 -63 59 -52 76 6 10 70 2 98 -12z"/>
 </g>

</svg>