<!DOCTYPE svg PUBLIC "-//W3C//DTD SVG 20010904//EN" "http://www.w3.org/TR/2001/REC-SVG-20010904/DTD/svg10.dtd">
<svg version="1.0" xmlns="http://www.w3.org/2000/svg" width="84px" height="84px" viewBox="0 0 840 840" preserveAspectRatio="xMidYMid meet">
<g id="layer1" fill="#ffffff" stroke="none">
 <path d="M164 663 c-4 -14 -4 -103 1 -197 8 -181 8 -250 -1 -278 -4 -14 1 -18 20 -18 14 0 26 5 26 10 0 6 7 10 15 10 8 0 15 -4 15 -10 0 -5 11 -10 25 -10 14 0 25 5 25 10 0 6 7 10 15 10 8 0 15 -4 15 -10 0 -5 11 -10 25 -10 14 0 25 5 25 10 0 6 7 10 15 10 8 0 15 -4 15 -10 0 -15 58 -12 63 3 3 9 9 9 26 -1 11 -6 29 -12 40 -12 11 0 21 6 24 12 3 10 9 10 30 -1 22 -12 29 -12 42 -1 12 10 21 10 41 1 14 -6 29 -11 34 -11 13 0 13 149 0 281 -6 62 -7 131 -2 172 l8 67 -268 0 -268 0 -6 -27z"/>
 </g>

</svg>