<!DOCTYPE svg PUBLIC "-//W3C//DTD SVG 20010904//EN" "http://www.w3.org/TR/2001/REC-SVG-20010904/DTD/svg10.dtd">
<svg version="1.0" xmlns="http://www.w3.org/2000/svg" width="84px" height="84px" viewBox="0 0 840 840" preserveAspectRatio="xMidYMid meet">
<g id="layer1" fill="#ffffff" stroke="none">
 <path d="M20 450 l0 -270 220 0 220 0 0 63 1 62 19 -25 c10 -14 25 -33 33 -44 14 -19 26 -16 71 19 18 14 16 19 -53 109 l-71 95 0 131 0 130 -220 0 -220 0 0 -270z m400 148 l-1 -83 -27 33 c-23 28 -109 79 -118 70 -1 -2 3 -23 9 -48 7 -28 35 -75 74 -127 l63 -82 0 -70 0 -71 -180 0 -180 0 0 230 0 230 180 0 180 0 0 -82z"/>
 <path d="M110 490 c0 -18 7 -20 80 -20 73 0 80 2 80 20 0 18 -7 20 -80 20 -73 0 -80 -2 -80 -20z"/>
 <path d="M110 410 c0 -19 7 -20 95 -20 88 0 95 1 95 20 0 19 -7 20 -95 20 -88 0 -95 -1 -95 -20z"/>
 <path d="M110 340 c0 -18 7 -20 85 -20 78 0 85 2 85 20 0 18 -7 20 -85 20 -78 0 -85 -2 -85 -20z"/>
 <path d="M490 600 l0 -110 170 0 170 0 0 110 0 110 -170 0 -170 0 0 -110z m320 0 l0 -90 -150 0 -150 0 0 90 0 90 150 0 150 0 0 -90z"/>
 <path d="M643 653 c-28 -32 -29 -47 -3 -40 11 3 20 2 20 -2 0 -3 -9 -12 -20 -19 -27 -16 -25 -38 4 -57 19 -13 29 -14 45 -5 25 13 28 40 4 40 -14 0 -13 3 5 16 12 8 22 21 22 28 0 12 -44 67 -52 65 -2 0 -13 -12 -25 -26z"/>
 </g>

</svg>