<!DOCTYPE svg PUBLIC "-//W3C//DTD SVG 20010904//EN" "http://www.w3.org/TR/2001/REC-SVG-20010904/DTD/svg10.dtd">
<svg version="1.0" xmlns="http://www.w3.org/2000/svg" width="84px" height="84px" viewBox="0 0 840 840" preserveAspectRatio="xMidYMid meet">
<g id="layer1" fill="#ffffff" stroke="none">
 <path d="M206 684 c-11 -28 -6 -141 7 -166 21 -40 52 -75 85 -95 l32 -20 -22 -22 c-29 -32 -36 -105 -13 -147 27 -50 75 -74 145 -74 62 0 130 29 130 55 0 7 7 18 15 25 15 13 22 110 8 110 -5 0 -15 13 -24 29 -16 28 -16 28 15 47 71 42 98 97 94 195 l-3 74 -231 3 c-205 2 -232 1 -238 -14z"/>
 </g>

</svg>