<!DOCTYPE svg PUBLIC "-//W3C//DTD SVG 20010904//EN" "http://www.w3.org/TR/2001/REC-SVG-20010904/DTD/svg10.dtd">
<svg version="1.0" xmlns="http://www.w3.org/2000/svg" width="84px" height="84px" viewBox="0 0 840 840" preserveAspectRatio="xMidYMid meet">
<g id="layer1" fill="#ffffff" stroke="none">
 <path d="M353 706 c-172 -56 -253 -258 -167 -416 55 -101 142 -150 263 -150 83 0 150 30 207 92 59 64 78 120 72 217 -7 119 -60 196 -167 244 -57 25 -153 31 -208 13z m75 -80 c48 -17 122 -65 122 -79 0 -5 -15 2 -34 17 -30 22 -76 36 -76 22 0 -3 22 -51 50 -106 39 -81 47 -106 39 -121 -11 -22 -67 -26 -120 -7 -41 14 -109 57 -109 69 0 5 19 -4 42 -21 82 -60 87 -38 18 91 -27 52 -50 101 -50 110 0 39 47 50 118 25z m148 -347 c25 -28 8 -53 -40 -57 -38 -3 -76 18 -76 43 0 38 84 49 116 14z"/>
 </g>

</svg>