<!DOCTYPE svg PUBLIC "-//W3C//DTD SVG 20010904//EN" "http://www.w3.org/TR/2001/REC-SVG-20010904/DTD/svg10.dtd">
<svg version="1.0" xmlns="http://www.w3.org/2000/svg" width="84px" height="84px" viewBox="0 0 840 840" preserveAspectRatio="xMidYMid meet">
<g id="layer1" fill="#ffffff" stroke="none">
 <path d="M70 435 l0 -215 375 0 375 0 0 215 0 215 -375 0 -375 0 0 -215z m690 65 l0 -60 -235 0 -235 0 0 60 0 60 235 0 235 0 0 -60z m-30 -135 l0 -25 -220 0 -220 0 0 25 0 25 220 0 220 0 0 -25z m0 -65 c0 -19 -7 -20 -220 -20 -213 0 -220 1 -220 20 0 19 7 20 220 20 213 0 220 -1 220 -20z"/>
 </g>

</svg>