<!DOCTYPE svg PUBLIC "-//W3C//DTD SVG 20010904//EN" "http://www.w3.org/TR/2001/REC-SVG-20010904/DTD/svg10.dtd">
<svg version="1.0" xmlns="http://www.w3.org/2000/svg" width="84px" height="84px" viewBox="0 0 840 840" preserveAspectRatio="xMidYMid meet">
<g id="layer1" fill="#ffffff" stroke="none">
 <path d="M305 722 c-76 -36 -147 -113 -170 -183 -24 -71 -17 -178 14 -243 26 -52 94 -126 117 -126 14 0 74 75 74 92 0 5 -16 24 -34 43 -54 53 -69 125 -41 193 21 49 52 81 100 103 181 84 342 -148 204 -293 l-40 -42 17 -32 c10 -18 25 -42 35 -55 l16 -22 32 22 c48 35 100 109 117 170 43 145 -27 299 -168 372 -32 17 -65 24 -128 26 -78 4 -90 2 -145 -25z"/>
 <path d="M377 493 c-4 -3 -7 -89 -7 -190 l0 -183 67 0 66 0 -7 181 c-3 100 -9 186 -12 190 -6 10 -98 12 -107 2z"/>
 </g>

</svg>