<!DOCTYPE svg PUBLIC "-//W3C//DTD SVG 20010904//EN" "http://www.w3.org/TR/2001/REC-SVG-20010904/DTD/svg10.dtd">
<svg version="1.0" xmlns="http://www.w3.org/2000/svg" width="51px" height="48px" viewBox="0 0 510 480" preserveAspectRatio="xMidYMid meet">
<g id="layer1" fill="#796100" stroke="none">
 <path d="M98 473 c7 -3 16 -2 19 1 4 3 -2 6 -13 5 -11 0 -14 -3 -6 -6z"/>
 <path d="M398 453 c7 -3 16 -2 19 1 4 3 -2 6 -13 5 -11 0 -14 -3 -6 -6z"/>
 <path d="M176 443 c-11 -11 -6 -22 15 -34 32 -17 46 4 16 24 -14 9 -27 13 -31 10z"/>
 <path d="M270 420 c-8 -5 -12 -12 -8 -15 9 -9 48 4 48 16 0 12 -21 11 -40 -1z"/>
 <path d="M382 310 c0 -14 2 -19 5 -12 2 6 2 18 0 25 -3 6 -5 1 -5 -13z"/>
 </g>
<g id="layer2" fill="#6e5800" stroke="none">
 <path d="M100 472 c0 -27 86 -72 110 -57 19 12 6 27 -35 42 -66 24 -75 26 -75 15z"/>
 <path d="M378 473 c7 -3 16 -2 19 1 4 3 -2 6 -13 5 -11 0 -14 -3 -6 -6z"/>
 <path d="M328 453 c-26 -4 -41 -33 -18 -33 13 0 70 29 70 35 0 5 -6 5 -52 -2z"/>
 <path d="M380 323 c0 -34 17 -46 18 -14 0 17 -4 31 -9 31 -5 0 -9 -8 -9 -17z"/>
 <path d="M436 262 c-3 -6 1 -15 8 -21 8 -7 17 -8 20 -3 3 6 -1 15 -8 21 -8 7 -17 8 -20 3z"/>
 <path d="M466 211 c-3 -5 1 -14 9 -21 12 -10 15 -10 15 3 0 19 -16 31 -24 18z"/>
 </g>
<g id="layer3" fill="#c29b00" stroke="none">
 <path d="M310 430 c-8 -5 -12 -12 -8 -15 9 -9 48 4 48 16 0 12 -21 11 -40 -1z"/>
 <path d="M210 401 c0 -9 24 -21 41 -21 5 0 9 7 9 15 0 9 -9 15 -25 15 -14 0 -25 -4 -25 -9z"/>
 <path d="M375 400 c-4 -6 -3 -16 3 -22 6 -6 12 -6 17 2 4 6 3 16 -3 22 -6 6 -12 6 -17 -2z"/>
 <path d="M365 320 c-9 -14 23 -62 35 -55 6 4 4 18 -5 36 -17 32 -21 34 -30 19z"/>
 <path d="M91 286 c-7 -8 -8 -17 -3 -20 6 -3 15 1 21 8 7 8 8 17 3 20 -6 3 -15 -1 -21 -8z"/>
 <path d="M14 215 c-9 -22 1 -29 15 -11 8 10 9 16 1 21 -5 3 -13 -1 -16 -10z"/>
 <path d="M311 131 c-8 -6 -11 -16 -7 -27 6 -16 8 -16 23 -1 20 19 6 41 -16 28z"/>
 </g>
<g id="layer4" fill="#594800" stroke="none">
 <path d="M325 455 c-35 -14 -71 -22 -87 -19 -14 3 -29 0 -33 -6 -9 -15 13 -40 35 -40 21 0 123 49 128 62 2 4 15 8 28 8 13 0 24 5 24 10 0 16 -30 11 -95 -15z"/>
 <path d="M376 311 c-10 -16 22 -59 73 -97 60 -47 64 -27 9 44 -43 56 -70 73 -82 53z"/>
 </g>
<g id="layer5" fill="#947600" stroke="none">
 <path d="M328 443 c-21 -8 -38 -19 -38 -24 0 -13 21 -10 50 6 39 22 42 19 38 -42 -2 -46 0 -58 12 -58 11 0 17 16 22 55 4 30 5 61 3 68 -6 16 -42 14 -87 -5z"/>
 <path d="M434 229 c-10 -17 23 -46 37 -32 7 7 9 19 6 27 -7 18 -33 21 -43 5z"/>
 </g>
<g id="layer6" fill="#b38f00" stroke="none">
 <path d="M367 454 c-13 -13 -7 -21 13 -20 11 0 20 6 21 11 0 12 -24 18 -34 9z"/>
 <path d="M130 442 c0 -9 44 -32 60 -32 19 0 10 17 -15 28 -31 14 -45 15 -45 4z"/>
 <path d="M250 400 c-8 -5 -10 -10 -5 -10 6 0 17 5 25 10 8 5 11 10 5 10 -5 0 -17 -5 -25 -10z"/>
 <path d="M375 380 c-4 -6 -3 -16 3 -22 6 -6 12 -6 17 2 4 6 3 16 -3 22 -6 6 -12 6 -17 -2z"/>
 <path d="M67 280 c-31 -27 -55 -75 -44 -87 8 -7 67 49 82 78 21 40 2 45 -38 9z"/>
 <path d="M395 270 c-3 -5 4 -19 15 -30 24 -24 45 -18 30 9 -11 22 -37 34 -45 21z"/>
 </g>
<g id="layer7" fill="#d7ac00" stroke="none">
 <path d="M92 460 c14 -21 65 -46 75 -36 3 3 4 7 2 9 -2 1 -18 12 -36 25 -40 28 -57 29 -41 2z"/>
 <path d="M370 428 c0 -29 15 -45 25 -28 3 5 -1 20 -9 32 l-16 22 0 -26z"/>
 <path d="M260 400 c0 -5 7 -10 15 -10 8 0 15 5 15 10 0 6 -7 10 -15 10 -8 0 -15 -4 -15 -10z"/>
 <path d="M366 342 c-3 -6 -2 -20 2 -33 l9 -23 6 25 c7 25 -6 48 -17 31z"/>
 <path d="M66 261 c-24 -24 -36 -46 -34 -57 3 -16 10 -13 46 22 38 38 55 74 34 74 -4 0 -25 -18 -46 -39z"/>
 <path d="M285 98 c-37 -56 -43 -78 -21 -78 18 0 31 17 55 73 28 65 9 68 -34 5z"/>
 </g>
<g id="layer8" fill="#ffdd4e" stroke="none">
 <path d="M91 408 c1 -53 11 -89 24 -91 14 -3 18 37 10 90 -9 59 -35 60 -34 1z"/>
 <path d="M1 184 c0 -11 3 -14 6 -6 3 7 2 16 -1 19 -3 4 -6 -2 -5 -13z"/>
 <path d="M447 194 c-9 -10 2 -24 19 -24 8 0 14 7 14 15 0 15 -21 21 -33 9z"/>
 <path d="M107 184 c-3 -4 -2 -16 4 -26 13 -24 35 -9 26 16 -7 17 -19 21 -30 10z"/>
 <path d="M368 183 c-28 -4 -44 -28 -27 -39 5 -3 15 -1 22 4 7 6 22 12 35 14 12 1 23 8 23 13 0 12 -15 14 -53 8z"/>
 <path d="M160 165 c0 -3 11 -22 23 -43 13 -20 32 -50 41 -65 9 -15 21 -25 26 -22 10 6 -28 82 -58 118 -14 16 -32 23 -32 12z"/>
 <path d="M240 10 c0 -5 7 -10 15 -10 8 0 15 5 15 10 0 6 -7 10 -15 10 -8 0 -15 -4 -15 -10z"/>
 </g>
<g id="layer9" fill="#e9ba00" stroke="none">
 <path d="M313 427 c-24 -11 -43 -25 -43 -29 0 -12 18 -10 51 8 17 8 40 14 52 12 14 -2 23 3 25 15 5 24 -31 22 -85 -6z"/>
 <path d="M130 430 c0 -5 5 -10 10 -10 19 0 25 -2 45 -16 22 -16 45 -18 45 -5 0 8 -32 24 -52 26 -3 0 -10 3 -14 8 -11 10 -34 9 -34 -3z"/>
 <path d="M364 376 c-8 -21 3 -49 16 -41 5 3 10 15 10 25 0 25 -18 36 -26 16z"/>
 <path d="M104 305 c-9 -23 10 -40 25 -22 9 11 8 17 -4 27 -12 10 -16 9 -21 -5z"/>
 <path d="M365 291 c-6 -11 48 -77 76 -91 32 -18 31 7 -2 45 -37 42 -65 59 -74 46z"/>
 <path d="M59 241 c-34 -34 -31 -61 4 -38 11 7 27 23 34 34 23 35 -4 38 -38 4z"/>
 <path d="M490 185 c0 -8 5 -15 10 -15 6 0 10 7 10 15 0 8 -4 15 -10 15 -5 0 -10 -7 -10 -15z"/>
 <path d="M283 107 c-25 -37 -32 -61 -19 -67 12 -7 43 38 52 73 8 36 -6 34 -33 -6z"/>
 <path d="M258 13 c7 -3 16 -2 19 1 4 3 -2 6 -13 5 -11 0 -14 -3 -6 -6z"/>
 </g>
<g id="layer10" fill="#ffd732" stroke="none">
 <path d="M90 450 c6 -12 8 -30 5 -41 -4 -11 -2 -26 5 -34 6 -7 10 -26 8 -42 -2 -20 1 -28 12 -28 12 0 15 14 14 67 -1 67 -13 98 -41 98 -11 0 -11 -4 -3 -20z"/>
 <path d="M30 196 c0 -16 60 -30 74 -16 10 10 3 13 -46 24 -20 5 -28 2 -28 -8z"/>
 <path d="M377 191 c-47 -10 -66 -26 -49 -43 8 -8 15 -8 26 1 7 6 33 15 57 19 45 8 60 26 24 29 -11 0 -37 -2 -58 -6z"/>
 <path d="M481 184 c0 -11 3 -14 6 -6 3 7 2 16 -1 19 -3 4 -6 -2 -5 -13z"/>
 <path d="M125 180 c-3 -6 4 -14 17 -19 30 -11 50 -35 77 -93 13 -27 29 -48 38 -48 19 0 9 32 -28 89 -16 25 -29 47 -29 51 0 7 -45 30 -60 30 -5 0 -12 -5 -15 -10z"/>
 </g>
<g id="layer11" fill="#ffe46c" stroke="none">
 <path d="M88 453 c7 -3 16 -2 19 1 4 3 -2 6 -13 5 -11 0 -14 -3 -6 -6z"/>
 <path d="M12 183 c2 -13 19 -21 60 -29 82 -16 80 -15 123 -88 38 -65 65 -85 65 -47 0 15 -60 134 -75 150 -6 6 -128 30 -153 31 -17 0 -23 -5 -20 -17z"/>
 <path d="M390 183 c-33 -6 -53 -24 -42 -35 14 -14 142 13 142 29 0 13 -45 16 -100 6z"/>
 </g>
<g id="layer12" fill="#ffcc01" stroke="none">
 <path d="M115 440 c-3 -5 -3 -31 0 -57 4 -26 2 -60 -3 -74 -16 -40 -71 -99 -93 -99 -10 0 -19 -6 -19 -14 0 -9 21 -15 71 -20 39 -3 79 -10 88 -15 9 -5 32 -35 51 -67 19 -32 40 -59 46 -61 7 -2 23 15 37 39 44 73 71 95 126 103 28 4 53 10 56 14 2 4 -18 30 -46 57 l-50 49 6 78 c8 90 6 92 -79 50 l-54 -26 -62 26 c-70 31 -67 30 -75 17z"/>
 </g>

</svg>